# xmcd
#
# Track frame offsets: 
#        182
#        20965
#        52257
#        70107
#        92700
#        121165
#        148000
#        166260
#        183927
#
# Disc length: 2661 seconds
#
# Revision: 2
# Processed by: cddbd v1.5.2PL0 Copyright (c) Steve Scherf et al.
# Submitted via: ExactAudioCopy v0.95b3
#
DISCID=7e0a6309
DTITLE=The Twins - Until The End Of Time [610 500-222]
DYEAR=1985
DGENRE=Pop
TTITLE0=I Fell For You
TTITLE1=The Game Of Chance (Anvil Club Mix)
TTITLE2=In My Broken Dream
TTITLE3=Until The End Of Time
TTITLE4=I Need You (Long Version)
TTITLE5=Love In The Dark (Special Dance Mix)
TTITLE6=Deep Within My Heart
TTITLE7=Fantasy
TTITLE8=Talk To Me
EXTD=YEAR: 1985 ID3G: 13
EXTT0=
EXTT1=
EXTT2=
EXTT3=
EXTT4=
EXTT5=
EXTT6=
EXTT7=
EXTT8=
PLAYORDER=
